<svg class="animated" id="freepik_stories-sync" xmlns="http://www.w3.org/2000/svg" viewBox="0 0 500 500" version="1.1" xmlns:xlink="http://www.w3.org/1999/xlink" xmlns:svgjs="http://svgjs.com/svgjs"><style>svg#freepik_stories-sync:not(.animated) .animable {opacity: 0;}svg#freepik_stories-sync.animated #freepik--background-simple--inject-2 {animation: 6s Infinite  linear floating;animation-delay: 0s;}            @keyframes floating {                0% {                    opacity: 1;                    transform: translateY(0px);                }                50% {                    transform: translateY(-10px);                }                100% {                    opacity: 1;                    transform: translateY(0px);                }            }        </style><g id="freepik--background-simple--inject-2" class="animable animator-active" style="transform-origin: 230.886px 246.01px;"><path d="M394.48,191.9a136.57,136.57,0,0,0-29.55-58.77c-7.77-9-17.23-17.47-28.21-23-33.82-17-92.13,18.86-120.46,37.25s-49.58.47-84.36-3.31S54.61,167.66,52.68,211s55.06,77.32,43.47,100.89-29,59.41,34.78,72.61,95.65-49,135.26-43.37,32.4,57.14,103.37,33C427,354.62,409.18,255.48,394.48,191.9Z" style="fill: #4A8FE7; transform-origin: 230.886px 246.01px;" id="elzmpbjl833fo" class="animable"></path><g id="el0y70tf3g56jq"><path d="M394.48,191.9a136.57,136.57,0,0,0-29.55-58.77c-7.77-9-17.23-17.47-28.21-23-33.82-17-92.13,18.86-120.46,37.25s-49.58.47-84.36-3.31S54.61,167.66,52.68,211s55.06,77.32,43.47,100.89-29,59.41,34.78,72.61,95.65-49,135.26-43.37,32.4,57.14,103.37,33C427,354.62,409.18,255.48,394.48,191.9Z" style="fill: rgb(255, 255, 255); opacity: 0.7; transform-origin: 230.886px 246.01px;" class="animable" id="elgck2262hm9u"></path></g></g><g id="freepik--shadow-1--inject-2" class="animable" style="transform-origin: 216.91px 334.8px;"><ellipse cx="216.91" cy="334.8" rx="141.46" ry="8.15" style="fill: #4A8FE7; transform-origin: 216.91px 334.8px;" id="elj4s9x42wf1r" class="animable"></ellipse><g id="el18mujt8njyp"><ellipse cx="216.91" cy="334.8" rx="141.46" ry="8.15" style="opacity: 0.15; transform-origin: 216.91px 334.8px;" class="animable" id="el4ut9yng9r4"></ellipse></g></g><g id="freepik--shadow-2--inject-2" class="animable" style="transform-origin: 316.38px 418.78px;"><ellipse cx="316.38" cy="418.78" rx="141.46" ry="8.15" style="fill: #4A8FE7; transform-origin: 316.38px 418.78px;" id="elkrr9mkcray" class="animable"></ellipse><g id="el2n6hg1zppnz"><ellipse cx="316.38" cy="418.78" rx="141.46" ry="8.15" style="opacity: 0.15; transform-origin: 316.38px 418.78px;" class="animable" id="el1u1y0ymk37s"></ellipse></g></g><g id="freepik--Plant--inject-2" class="animable" style="transform-origin: 384.007px 202.518px;"><path d="M321,101.59a5.85,5.85,0,0,1,4.7-7.34c4.9-.67,10.93,5.92,12.84,9.91.16.34,2.12,6,2,6s-8.7.19-12.25-1.36C325.34,107.51,321.85,105,321,101.59Zm126-15.12c-.72,3.42-4.14,6-7.12,7.44s-10.07,1.65-11.81,1.68c-.94,1.12-1.94,2.32-3,3.68-1.87,2.4-3.95,5.13-6,8.25-.56.83-1.12,1.74-1.68,2.62,1.25-1.28,3-3,3.18-3.17,3.46-2.75,11.76-6,15.88-3.3a5.85,5.85,0,0,1,1,8.65c-2.21,2.7-6.45,3.45-9.75,3.32s-9.9-3.27-11.31-4c-1.21,2-2.41,4-3.53,6.2a75.61,75.61,0,0,0-5.19,12.41,2,2,0,0,0,.25.13c1-1.32,3.19-4,3.4-4.25,3.13-3.12,11-7.3,15.42-5a5.86,5.86,0,0,1,2,8.49c-1.91,2.93-6,4.14-9.33,4.37-3.8.26-11.65-2.7-11.94-2.81a103.23,103.23,0,0,0-2.86,13.07c-.51,3.27-.89,6.6-1.25,9.94.69-.95,3.56-4.54,3.79-4.77,3.14-3.12,11-7.3,15.42-5a5.85,5.85,0,0,1,2,8.49c-1.91,2.93-6,4.14-9.33,4.37-3.71.26-11.24-2.54-11.87-2.78-.16,1.52-.33,3-.48,4.55-.48,5-.95,10-1.55,14.87-.22,1.7-.49,3.37-.75,5,1.07-1.39,3.07-3.88,3.26-4.07,3.14-3.12,11-7.3,15.42-5a5.85,5.85,0,0,1,2,8.49c-1.91,2.93-6,4.14-9.33,4.37s-9.69-2-11.48-2.64c-.46,2.78-1,5.52-1.62,8.2-.3,1.15-.53,2.34-.88,3.43s-.65,2.19-1,3.28c-.75,2.21-1.43,4.27-2.18,6.31-.37,1-.75,2-1.12,3,.87-1.57,2.3-4,2.45-4.24,2.63-3.56,9.79-8.89,14.48-7.31a5.86,5.86,0,0,1,3.24,8.09c-1.45,3.19-5.35,5-8.57,5.74-3.55.8-11.17-.75-12.1-.94-.92,2.44-1.85,4.81-2.75,7-2.86,7-5.5,12.68-7.4,16.65-.11.22-.21.42-.31.64h13.88l-4.79,93.46A13.35,13.35,0,0,1,378.43,336h0a13.35,13.35,0,0,1-13.34-12.67l-4.79-93.46h14.89c-.07-.65-.14-1.34-.23-2.1-.5-4.32-1.3-10.49-2.6-17.84-.36-2.12-.79-4.37-1.25-6.66-1,.12-8.66,1.09-12.13,0-3.16-1-6.91-3.07-8.11-6.35a5.86,5.86,0,0,1,3.82-7.84c4.8-1.22,11.54,4.63,13.9,8.37.15.24,1.61,3.27,2.32,4.84-.28-1.39-.56-2.77-.88-4.21-.44-2.08-1-4.26-1.49-6.37-.3-1.09-.61-2.19-.92-3.3s-.7-2.16-1.05-3.26c-.54-1.6-1.19-3.22-1.83-4.85-2.08.58-8.24,2.17-11.4,1.71s-7.29-2-9-5.05a5.85,5.85,0,0,1,2.6-8.32c4.55-1.94,12.11,2.82,15,6.17.09.1.63.87,1.26,1.79-.67-1.56-1.34-3.13-2.07-4.69-2.09-4.43-4.35-8.89-6.59-13.36-.47-.93-.92-1.86-1.39-2.8-1.75.5-8.4,2.28-11.72,1.8s-7.29-2-9-5.05a5.88,5.88,0,0,1,2.6-8.33c4.56-1.93,12.11,2.83,15,6.17.1.12.75,1,1.45,2.08-1.18-2.45-2.33-4.9-3.4-7.37a103.29,103.29,0,0,1-4.7-13c-.62.18-8.37,2.43-12.06,1.89-3.26-.48-7.29-2-9-5.05a5.87,5.87,0,0,1,2.6-8.33c4.55-1.93,12.11,2.83,15,6.17.2.24,2.5,3.59,3.27,4.81,0,0,0-.1,0-.16A75.38,75.38,0,0,1,341,118.05a103,103,0,0,1-.29-12.14c.09-3.75.4-7.19.7-10.22.18-1.64.37-3.14.56-4.54l-.09.06c-.07.05-1.73-5.73-1.8-6.1-.72-4.36.43-13.22,4.83-15.49a5.85,5.85,0,0,1,8.06,3.31c1.29,3.25-.12,7.32-1.84,10.14S343.61,90,342.17,91c-.17,1.45-.33,3-.48,4.73-.24,3-.47,6.46-.48,10.2,0,1,0,2.07.05,3.11.34-1.75.83-4.16.91-4.39,1.36-4.21,6.46-11.53,11.41-11.52a5.85,5.85,0,0,1,5.63,6.66c-.35,3.47-3.48,6.44-6.3,8.15s-10.06,2.73-11.62,2.92c.07,2.3.19,4.67.47,7.12a75.25,75.25,0,0,0,2.52,13.22l.28,0c.11-1.66.43-5.14.49-5.43.89-4.33,5.16-12.17,10.08-12.7a5.87,5.87,0,0,1,6.33,6c0,3.49-2.75,6.78-5.37,8.79-3,2.31-11.2,4.17-11.51,4.24a103.71,103.71,0,0,0,4.83,12.48c1.38,3,2.89,6,4.44,9,0-1.17.46-5.74.53-6.07.89-4.33,5.17-12.17,10.09-12.7a5.85,5.85,0,0,1,6.32,6c0,3.5-2.75,6.79-5.37,8.8-2.95,2.26-10.78,4.07-11.44,4.23.71,1.35,1.4,2.71,2.12,4.06,2.34,4.41,4.71,8.83,6.9,13.26.77,1.53,1.46,3.07,2.16,4.61.13-1.75.42-4.93.48-5.2.89-4.32,5.16-12.16,10.08-12.7a5.87,5.87,0,0,1,6.33,6c0,3.49-2.75,6.78-5.37,8.79s-9.19,3.69-11,4.13c1.15,2.57,2.24,5.15,3.18,7.74.39,1.12.85,2.24,1.16,3.34s.66,2.19,1,3.27c.6,2.26,1.16,4.36,1.66,6.47.26,1.07.48,2.08.72,3.13-.13-1.8-.3-4.64-.29-4.9.23-4.41,3.26-12.81,8-14.08a5.86,5.86,0,0,1,7.17,5,8,8,0,0,1,.08,1.29,22.8,22.8,0,0,1,3,11.07c0,.28-.46,3.62-.73,5.31.53-1.31,1.06-2.61,1.59-4,.77-2,1.53-4.09,2.27-6.14.35-1.07.7-2.15,1.05-3.25s.61-2.19.93-3.3c.42-1.64.78-3.35,1.14-5.05-2.06-.67-8.07-2.74-10.45-4.87s-5-5.68-4.7-9.17a5.85,5.85,0,0,1,6.75-5.5c4.87.89,8.54,9,9.11,13.41,0,.15.05,1.08.06,2.2.3-1.68.61-3.35.86-5.06.71-4.85,1.28-9.81,1.88-14.77.12-1,.26-2.07.39-3.11-1.74-.55-8.27-2.73-10.77-5s-5-5.69-4.7-9.17a5.86,5.86,0,0,1,6.76-5.51c4.86.9,8.54,9,9.11,13.42,0,.16,0,1.28.06,2.53.36-2.69.75-5.37,1.23-8a104.37,104.37,0,0,1,3.25-13.45c-.61-.19-8.32-2.59-11.1-5.07-2.46-2.2-5-5.68-4.7-9.17a5.87,5.87,0,0,1,6.76-5.51c4.87.9,8.54,9,9.11,13.42,0,.31.1,4.37.08,5.82a.94.94,0,0,1,0-.16,77.25,77.25,0,0,1,5.52-12.41,103.14,103.14,0,0,1,6.45-10.28c2.15-3.09,4.3-5.78,6.22-8.14,1.06-1.27,2-2.42,3-3.48h-.11c-.09,0,1.71-5.74,1.87-6.09,1.8-4,7.64-10.78,12.57-10.25A5.85,5.85,0,0,1,447.07,86.47ZM390.31,205.23c-.84-.4-7.33-3.62-9.87-6.36a62.72,62.72,0,0,1-6.76,3.18c.57,2.55,1.11,5,1.57,7.38,1.47,7.39,2.41,13.6,3,18,.13.93.24,1.76.33,2.52h.33L380,227.8c2-3.88,4.7-9.47,7.67-16.32C388.55,209.51,389.43,207.41,390.31,205.23Zm25.93-94.49c.08.05,1.58-5.77,1.64-6.15.61-4.38-.79-13.19-5.25-15.35a5.86,5.86,0,0,0-8,3.53c-1.19,3.29.32,7.31,2.12,10.09C408.88,106.11,416.24,110.74,416.24,110.74Z" style="fill: #4A8FE7; transform-origin: 384.007px 202.518px;" id="eltkmt60kvb9n" class="animable"></path><g id="elngks5tr5v7"><path d="M321,101.59a5.85,5.85,0,0,1,4.7-7.34c4.9-.67,10.93,5.92,12.84,9.91.16.34,2.12,6,2,6s-8.7.19-12.25-1.36C325.34,107.51,321.85,105,321,101.59Zm126-15.12c-.72,3.42-4.14,6-7.12,7.44s-10.07,1.65-11.81,1.68c-.94,1.12-1.94,2.32-3,3.68-1.87,2.4-3.95,5.13-6,8.25-.56.83-1.12,1.74-1.68,2.62,1.25-1.28,3-3,3.18-3.17,3.46-2.75,11.76-6,15.88-3.3a5.85,5.85,0,0,1,1,8.65c-2.21,2.7-6.45,3.45-9.75,3.32s-9.9-3.27-11.31-4c-1.21,2-2.41,4-3.53,6.2a75.61,75.61,0,0,0-5.19,12.41,2,2,0,0,0,.25.13c1-1.32,3.19-4,3.4-4.25,3.13-3.12,11-7.3,15.42-5a5.86,5.86,0,0,1,2,8.49c-1.91,2.93-6,4.14-9.33,4.37-3.8.26-11.65-2.7-11.94-2.81a103.23,103.23,0,0,0-2.86,13.07c-.51,3.27-.89,6.6-1.25,9.94.69-.95,3.56-4.54,3.79-4.77,3.14-3.12,11-7.3,15.42-5a5.85,5.85,0,0,1,2,8.49c-1.91,2.93-6,4.14-9.33,4.37-3.71.26-11.24-2.54-11.87-2.78-.16,1.52-.33,3-.48,4.55-.48,5-.95,10-1.55,14.87-.22,1.7-.49,3.37-.75,5,1.07-1.39,3.07-3.88,3.26-4.07,3.14-3.12,11-7.3,15.42-5a5.85,5.85,0,0,1,2,8.49c-1.91,2.93-6,4.14-9.33,4.37s-9.69-2-11.48-2.64c-.46,2.78-1,5.52-1.62,8.2-.3,1.15-.53,2.34-.88,3.43s-.65,2.19-1,3.28c-.75,2.21-1.43,4.27-2.18,6.31-.37,1-.75,2-1.12,3,.87-1.57,2.3-4,2.45-4.24,2.63-3.56,9.79-8.89,14.48-7.31a5.86,5.86,0,0,1,3.24,8.09c-1.45,3.19-5.35,5-8.57,5.74-3.55.8-11.17-.75-12.1-.94-.92,2.44-1.85,4.81-2.75,7-2.86,7-5.5,12.68-7.4,16.65-.11.22-.21.42-.31.64h13.88l-4.79,93.46A13.35,13.35,0,0,1,378.43,336h0a13.35,13.35,0,0,1-13.34-12.67l-4.79-93.46h14.89c-.07-.65-.14-1.34-.23-2.1-.5-4.32-1.3-10.49-2.6-17.84-.36-2.12-.79-4.37-1.25-6.66-1,.12-8.66,1.09-12.13,0-3.16-1-6.91-3.07-8.11-6.35a5.86,5.86,0,0,1,3.82-7.84c4.8-1.22,11.54,4.63,13.9,8.37.15.24,1.61,3.27,2.32,4.84-.28-1.39-.56-2.77-.88-4.21-.44-2.08-1-4.26-1.49-6.37-.3-1.09-.61-2.19-.92-3.3s-.7-2.16-1.05-3.26c-.54-1.6-1.19-3.22-1.83-4.85-2.08.58-8.24,2.17-11.4,1.71s-7.29-2-9-5.05a5.85,5.85,0,0,1,2.6-8.32c4.55-1.94,12.11,2.82,15,6.17.09.1.63.87,1.26,1.79-.67-1.56-1.34-3.13-2.07-4.69-2.09-4.43-4.35-8.89-6.59-13.36-.47-.93-.92-1.86-1.39-2.8-1.75.5-8.4,2.28-11.72,1.8s-7.29-2-9-5.05a5.88,5.88,0,0,1,2.6-8.33c4.56-1.93,12.11,2.83,15,6.17.1.12.75,1,1.45,2.08-1.18-2.45-2.33-4.9-3.4-7.37a103.29,103.29,0,0,1-4.7-13c-.62.18-8.37,2.43-12.06,1.89-3.26-.48-7.29-2-9-5.05a5.87,5.87,0,0,1,2.6-8.33c4.55-1.93,12.11,2.83,15,6.17.2.24,2.5,3.59,3.27,4.81,0,0,0-.1,0-.16A75.38,75.38,0,0,1,341,118.05a103,103,0,0,1-.29-12.14c.09-3.75.4-7.19.7-10.22.18-1.64.37-3.14.56-4.54l-.09.06c-.07.05-1.73-5.73-1.8-6.1-.72-4.36.43-13.22,4.83-15.49a5.85,5.85,0,0,1,8.06,3.31c1.29,3.25-.12,7.32-1.84,10.14S343.61,90,342.17,91c-.17,1.45-.33,3-.48,4.73-.24,3-.47,6.46-.48,10.2,0,1,0,2.07.05,3.11.34-1.75.83-4.16.91-4.39,1.36-4.21,6.46-11.53,11.41-11.52a5.85,5.85,0,0,1,5.63,6.66c-.35,3.47-3.48,6.44-6.3,8.15s-10.06,2.73-11.62,2.92c.07,2.3.19,4.67.47,7.12a75.25,75.25,0,0,0,2.52,13.22l.28,0c.11-1.66.43-5.14.49-5.43.89-4.33,5.16-12.17,10.08-12.7a5.87,5.87,0,0,1,6.33,6c0,3.49-2.75,6.78-5.37,8.79-3,2.31-11.2,4.17-11.51,4.24a103.71,103.71,0,0,0,4.83,12.48c1.38,3,2.89,6,4.44,9,0-1.17.46-5.74.53-6.07.89-4.33,5.17-12.17,10.09-12.7a5.85,5.85,0,0,1,6.32,6c0,3.5-2.75,6.79-5.37,8.8-2.95,2.26-10.78,4.07-11.44,4.23.71,1.35,1.4,2.71,2.12,4.06,2.34,4.41,4.71,8.83,6.9,13.26.77,1.53,1.46,3.07,2.16,4.61.13-1.75.42-4.93.48-5.2.89-4.32,5.16-12.16,10.08-12.7a5.87,5.87,0,0,1,6.33,6c0,3.49-2.75,6.78-5.37,8.79s-9.19,3.69-11,4.13c1.15,2.57,2.24,5.15,3.18,7.74.39,1.12.85,2.24,1.16,3.34s.66,2.19,1,3.27c.6,2.26,1.16,4.36,1.66,6.47.26,1.07.48,2.08.72,3.13-.13-1.8-.3-4.64-.29-4.9.23-4.41,3.26-12.81,8-14.08a5.86,5.86,0,0,1,7.17,5,8,8,0,0,1,.08,1.29,22.8,22.8,0,0,1,3,11.07c0,.28-.46,3.62-.73,5.31.53-1.31,1.06-2.61,1.59-4,.77-2,1.53-4.09,2.27-6.14.35-1.07.7-2.15,1.05-3.25s.61-2.19.93-3.3c.42-1.64.78-3.35,1.14-5.05-2.06-.67-8.07-2.74-10.45-4.87s-5-5.68-4.7-9.17a5.85,5.85,0,0,1,6.75-5.5c4.87.89,8.54,9,9.11,13.41,0,.15.05,1.08.06,2.2.3-1.68.61-3.35.86-5.06.71-4.85,1.28-9.81,1.88-14.77.12-1,.26-2.07.39-3.11-1.74-.55-8.27-2.73-10.77-5s-5-5.69-4.7-9.17a5.86,5.86,0,0,1,6.76-5.51c4.86.9,8.54,9,9.11,13.42,0,.16,0,1.28.06,2.53.36-2.69.75-5.37,1.23-8a104.37,104.37,0,0,1,3.25-13.45c-.61-.19-8.32-2.59-11.1-5.07-2.46-2.2-5-5.68-4.7-9.17a5.87,5.87,0,0,1,6.76-5.51c4.87.9,8.54,9,9.11,13.42,0,.31.1,4.37.08,5.82a.94.94,0,0,1,0-.16,77.25,77.25,0,0,1,5.52-12.41,103.14,103.14,0,0,1,6.45-10.28c2.15-3.09,4.3-5.78,6.22-8.14,1.06-1.27,2-2.42,3-3.48h-.11c-.09,0,1.71-5.74,1.87-6.09,1.8-4,7.64-10.78,12.57-10.25A5.85,5.85,0,0,1,447.07,86.47ZM390.31,205.23c-.84-.4-7.33-3.62-9.87-6.36a62.72,62.72,0,0,1-6.76,3.18c.57,2.55,1.11,5,1.57,7.38,1.47,7.39,2.41,13.6,3,18,.13.93.24,1.76.33,2.52h.33L380,227.8c2-3.88,4.7-9.47,7.67-16.32C388.55,209.51,389.43,207.41,390.31,205.23Zm25.93-94.49c.08.05,1.58-5.77,1.64-6.15.61-4.38-.79-13.19-5.25-15.35a5.86,5.86,0,0,0-8,3.53c-1.19,3.29.32,7.31,2.12,10.09C408.88,106.11,416.24,110.74,416.24,110.74Z" style="fill: rgb(255, 255, 255); opacity: 0.3; transform-origin: 384.007px 202.518px;" class="animable" id="elue5vyb5q6tn"></path></g></g><g id="freepik--device-1--inject-2" class="animable" style="transform-origin: 215.685px 243.795px;"><polygon points="107.51 312.54 104.88 312.54 94.18 334.15 97.61 334.15 107.51 325.59 107.51 312.54" style="fill: rgb(46, 53, 58); stroke: rgb(46, 53, 58); stroke-miterlimit: 10; transform-origin: 100.845px 323.345px;" id="el4djtbvie8li" class="animable"></polygon><polygon points="94.78 334.15 91.35 334.15 102.06 312.54 105.49 312.54 94.78 334.15" style="fill: rgb(46, 53, 58); stroke: rgb(46, 53, 58); stroke-miterlimit: 10; transform-origin: 98.42px 323.345px;" id="eln27b5cbx2bp" class="animable"></polygon><polygon points="320.19 312.54 322.82 312.54 333.52 334.15 330.09 334.15 320.19 325.59 320.19 312.54" style="fill: rgb(46, 53, 58); stroke: rgb(46, 53, 58); stroke-miterlimit: 10; transform-origin: 326.855px 323.345px;" id="el3hj5tlo99ri" class="animable"></polygon><polygon points="332.92 334.15 336.35 334.15 325.64 312.54 322.21 312.54 332.92 334.15" style="fill: rgb(46, 53, 58); stroke: rgb(46, 53, 58); stroke-miterlimit: 10; transform-origin: 329.28px 323.345px;" id="elywgr3vbdpfo" class="animable"></polygon><rect x="85.68" y="153.44" width="264.13" height="164.93" style="fill: rgb(255, 255, 255); stroke: rgb(46, 53, 58); stroke-miterlimit: 10; transform-origin: 217.745px 235.905px;" id="elkdsxgh7m7x9" class="animable"></rect><rect x="81.56" y="153.44" width="264.13" height="164.93" style="fill: rgb(46, 53, 58); stroke: rgb(46, 53, 58); stroke-miterlimit: 10; transform-origin: 213.625px 235.905px;" id="elugyvtjl13g" class="animable"></rect><rect x="86.91" y="157.97" width="253.43" height="155.86" style="fill: rgb(255, 255, 255); stroke: rgb(46, 53, 58); stroke-miterlimit: 10; transform-origin: 213.625px 235.9px;" id="el9l0njfc89q" class="animable"></rect></g><g id="freepik--cat-1--inject-2" class="animable" style="transform-origin: 213.622px 234.486px;"><ellipse cx="199.91" cy="290.47" rx="71.98" ry="9.16" style="fill: rgb(46, 53, 58); transform-origin: 199.91px 290.47px;" id="elprtg92p7t5q" class="animable"></ellipse><path d="M168.42,257.4s11.13,18,11.84,21.54-5.45,4.27-5.45,6.87,3.79,3.55,7.34,3.55a8,8,0,0,0,7.81-6.63c.95-4.26-2.84-9.94-4.26-16.81s-2.13-12.55-2.13-12.55S171.26,251.48,168.42,257.4Z" style="fill: #4A8FE7; stroke: rgb(46, 53, 58); stroke-miterlimit: 10; transform-origin: 179.265px 271.221px;" id="el73bzz6qp70v" class="animable"></path><g id="elbk868cgg5fu"><path d="M168.42,257.4s11.13,18,11.84,21.54-5.45,4.27-5.45,6.87,3.79,3.55,7.34,3.55a8,8,0,0,0,7.81-6.63c.95-4.26-2.84-9.94-4.26-16.81s-2.13-12.55-2.13-12.55S171.26,251.48,168.42,257.4Z" style="stroke: rgb(46, 53, 58); stroke-miterlimit: 10; opacity: 0.3; transform-origin: 179.265px 271.221px;" class="animable" id="el8ffffwkhmos"></path></g><path d="M215.77,246.74s-1.18,8,.24,13,5.21,10.89,3.31,13-12.78,5.92-15.39,5.92-5.68-1.19-8.52,1.42-.95,6.39,2.37,6.86,15.39-1.65,26.75-7.1,7.58-15.39,11.13-19.65,4.26-4.5,4.26-4.5S223.35,244.14,215.77,246.74Z" style="fill: #4A8FE7; stroke: rgb(46, 53, 58); stroke-miterlimit: 10; transform-origin: 216.972px 266.681px;" id="eljp663p4614g" class="animable"></path><g id="elbsswkini2hj"><path d="M215.77,246.74s-1.18,8,.24,13,5.21,10.89,3.31,13-12.78,5.92-15.39,5.92-5.68-1.19-8.52,1.42-.95,6.39,2.37,6.86,15.39-1.65,26.75-7.1,7.58-15.39,11.13-19.65,4.26-4.5,4.26-4.5S223.35,244.14,215.77,246.74Z" style="stroke: rgb(46, 53, 58); stroke-miterlimit: 10; opacity: 0.3; transform-origin: 216.972px 266.681px;" class="animable" id="elv9djwl9gjfd"></path></g><path d="M302.67,178.79c-2.37,8.76-1.42,20.36-7.58,26.76s-13,9.47-28.17,7.1-20.37-11.6-31-14.68-29.83-3.55-42.15-.47-19.41,7.1-24.86,8.28a18,18,0,0,1-5.33.37,5,5,0,0,0-1.54-3,19.42,19.42,0,0,1-3.15-4.41S163.28,188,163,183s-1.26-10.4-4.42-8.19-10.08,13.87-10.08,13.87a11.49,11.49,0,0,0-5.67-2.53,62,62,0,0,0-9.14.32s-8.2-13.24-9.46-14.81-2.84.63-3.15,7.56.94,15.44,2.84,17.34c0,0-4.1,6.93-3.79,8.82.28,1.69,10.9,12.95,15.84,15.54,2.14,4.49,6.12,13.55,7.14,20.89C144.51,252,154,256.21,154,256.21s-3.56,22.5-7.11,28.18-5.21,5.92-8.28,6.39-5.45,4.74-3.56,6.16,6.87,1.89,11.37-.47,10.42-11.13,15.39-20.13,11.13-19.41,11.13-19.41,10.42-1.66,24.86-4.74,20.12-.71,20.12-.71S229,258.58,234,260s14,4.5,14.21,9.24.24,8.76-4.5,10.89-6.39,6.39-5.68,8.29,5.68,2.84,9.47,2.13,7.34-5.45,9-9.95,5.21-19.41,3.55-24.39-7.34-6.86-6.39-11.12,6.15-7.11,6.63-13.26-1.9-8.53-1.9-8.53,18.23,5.21,34.81-1.18,18.46-25.81,17.75-33.86,2.37-12.78,3.79-17S305,170,302.67,178.79Z" style="fill: #4A8FE7; stroke: rgb(46, 53, 58); stroke-miterlimit: 10; transform-origin: 217.489px 233.743px;" id="elgu9ogo1moik" class="animable"></path><path d="M158.46,194.28l.34-1.48c.61-2.62,1.83-8.14,2.32-11.84.67-5-2.33-5.33-5.33-.67-3.69,5.75-7,10-7,10l7,6.33Z" style="fill: rgb(255, 255, 255); transform-origin: 155.002px 186.806px;" id="eltujtyoigonr" class="animable"></path><path d="M135.81,206.6s-7.66-.33-8.66,2.67,3,7.32,6.66,9,5.33,6.32,7.33,11.32,1.67,12,4.33,16.32,8.19,8.29,8.19,8.29a14.62,14.62,0,0,1,1.66-4.15c1-1.33,4.31-6.46,3.81-10.28a31.43,31.43,0,0,0-2.32-7.79l2.32,2.16a24.37,24.37,0,0,0-3.81-7.79c-2.49-3-3.15-4-3.15-4l3.29-.44S149.47,205.94,135.81,206.6Z" style="fill: rgb(255, 255, 255); transform-origin: 143.088px 230.39px;" id="elddvkl5iwgci" class="animable"></path><path d="M132.15,190.62s-1.67-8-4.66-13-5.72-6.1-5.33,1.66c.33,6.66,0,12.66,3,16.65C127.16,198.62,132.15,190.62,132.15,190.62Z" style="fill: rgb(255, 255, 255); transform-origin: 127.136px 185.073px;" id="elqsh527w4c7" class="animable"></path><path d="M157.05,195.6s4.5-6.15,4.74-18.23" style="fill: none; stroke: rgb(46, 53, 58); stroke-linecap: round; stroke-linejoin: round; transform-origin: 159.42px 186.485px;" id="elm0z9rx5dx2a" class="animable"></path><path d="M124.2,171.62s7,11.43,7,15.46" style="fill: none; stroke: rgb(46, 53, 58); stroke-linecap: round; stroke-linejoin: round; transform-origin: 127.7px 179.35px;" id="elkygykrxdp8" class="animable"></path><path d="M140.13,205.67l-4.75-.68c-1.36-.19-1.75.68-1.07,1.36s1.46,2.23,2.62,2.23,3.49-1.26,3.69-2.13S140.13,205.67,140.13,205.67Z" style="fill: rgb(46, 53, 58); transform-origin: 137.319px 206.772px;" id="elm7oa19tguj" class="animable"></path><line x1="136.93" y1="208.97" x2="137.03" y2="211.1" style="fill: none; stroke: rgb(46, 53, 58); stroke-linecap: round; stroke-linejoin: round; transform-origin: 136.98px 210.035px;" id="elyd7gg0gkcsa" class="animable"></line><path d="M132.66,208.48s1.36,3.4,4.27,3.4,4.37-1.84,5.34-3.3" style="fill: none; stroke: rgb(46, 53, 58); stroke-linecap: round; stroke-linejoin: round; transform-origin: 137.465px 210.18px;" id="el1lc41tx4y8q" class="animable"></path><path d="M134.6,201.74s-1.54-5.4-8.09-3.08" style="fill: none; stroke: rgb(46, 53, 58); stroke-linecap: round; stroke-linejoin: round; stroke-width: 2px; transform-origin: 130.555px 199.91px;" id="el68psv72qazv" class="animable"></path><path d="M142.79,203.28s5-6,11-1.78" style="fill: none; stroke: rgb(46, 53, 58); stroke-linecap: round; stroke-linejoin: round; stroke-width: 2px; transform-origin: 148.29px 201.638px;" id="elb5uy4gu2zys" class="animable"></path><path d="M130.13,205.94s-12.61-.51-17.75,5.66" style="fill: none; stroke: rgb(46, 53, 58); stroke-linecap: round; stroke-linejoin: round; stroke-width: 0.5px; transform-origin: 121.255px 208.765px;" id="elrunb9pifaa8" class="animable"></path><path d="M129.87,207.74a25.67,25.67,0,0,0-10,5.15" style="fill: none; stroke: rgb(46, 53, 58); stroke-linecap: round; stroke-linejoin: round; stroke-width: 0.5px; transform-origin: 124.87px 210.315px;" id="elojlrzfuhyag" class="animable"></path><path d="M128.84,209.54s-5.4,3.61-7.2,7.47" style="fill: none; stroke: rgb(46, 53, 58); stroke-linecap: round; stroke-linejoin: round; stroke-width: 0.5px; transform-origin: 125.24px 213.275px;" id="elollmktn6hvo" class="animable"></path><path d="M143.51,206.71s9.78-2.31,16.21,4.89" style="fill: none; stroke: rgb(46, 53, 58); stroke-linecap: round; stroke-linejoin: round; stroke-width: 0.5px; transform-origin: 151.615px 208.979px;" id="elxjqph7bi7e" class="animable"></path><path d="M143.77,208.51s6.69,0,10.29,3.35" style="fill: none; stroke: rgb(46, 53, 58); stroke-linecap: round; stroke-linejoin: round; stroke-width: 0.5px; transform-origin: 148.915px 210.185px;" id="elxfo7s52a2oh" class="animable"></path><path d="M144.8,210.32s4.11,2.31,4.88,4.11" style="fill: none; stroke: rgb(46, 53, 58); stroke-linecap: round; stroke-linejoin: round; stroke-width: 0.5px; transform-origin: 147.24px 212.375px;" id="eljc2w00g2dg" class="animable"></path><path d="M147.36,294.38a13.89,13.89,0,0,1-7.65,2.73c-4.19,0-4.92-.91-4-2.91S139,292,141,291.46,145.36,290,147.36,294.38Z" style="fill: rgb(255, 255, 255); transform-origin: 141.359px 294.051px;" id="el48tg349m0t1" class="animable"></path><path d="M244.7,281.62s-2.18.18-4.37,2.92-1.7,3.83,2.73,4.92a8.09,8.09,0,0,0,9.12-3.46C254,283.44,249.44,279.8,244.7,281.62Z" style="fill: rgb(255, 255, 255); transform-origin: 245.826px 285.457px;" id="eltwwq75i0ph" class="animable"></path><path d="M163.56,206.15a4.48,4.48,0,0,0-.65-1.87c-1.5,3.85-9.32,20.76-29.14,15.2a16.79,16.79,0,0,0,2.17,1.4c.31.65.66,1.39,1,2.2a27.92,27.92,0,0,0,4.35.36c14.74,0,21.74-12.53,23.85-17.24C164.59,206.2,164.05,206.19,163.56,206.15Z" style="fill: rgb(46, 53, 58); transform-origin: 149.455px 213.86px;" id="elws85pcr98bl" class="animable"></path><path d="M148.21,225.62a3,3,0,1,1-3-3A2.95,2.95,0,0,1,148.21,225.62Z" style="fill: rgb(255, 255, 255); stroke: rgb(46, 53, 58); stroke-miterlimit: 10; transform-origin: 145.21px 225.62px;" id="elyv4vg1fh8jf" class="animable"></path><path d="M181.32,201.38c2.36,2.39,9.94,11.05,9.94,23.46,0,14.69,4.13,13.11,5.9,4.2s3.54-25.71-.59-32l-.1-.14c-.93.18-1.85.38-2.72.6A114.77,114.77,0,0,0,181.32,201.38Z" style="fill: rgb(46, 53, 58); transform-origin: 190.209px 216.359px;" id="elikytqskkfy" class="animable"></path><path d="M204.9,195.77a3.71,3.71,0,0,0,1.17,3.15s5.68,4.26,5.68,15.15,4.73,6.63,4.73-4.74c0-7.61-.64-11.82-2.49-13.91C210.93,195.41,207.87,195.53,204.9,195.77Z" style="fill: rgb(46, 53, 58); transform-origin: 210.678px 207.9px;" id="elid548b5tal8" class="animable"></path><path d="M227.76,196.33c1.05,3.45,3.66,13.6.56,20.58-3.79,8.52,9-1.42,9.47-12.31.1-2.23.18-4.18.24-5.91-.69-.26-1.4-.51-2.13-.72A59.56,59.56,0,0,0,227.76,196.33Z" style="fill: rgb(46, 53, 58); transform-origin: 232.824px 208.225px;" id="elrvnhiu6qt3k" class="animable"></path><path d="M249.73,205.58a10.81,10.81,0,0,1-.57,3.75c-1.9,5.69-9.95,14.68-5.69,14.68,2.83,0,7.75-9.39,10.73-15.7C252.62,207.44,251.15,206.52,249.73,205.58Z" style="fill: rgb(46, 53, 58); transform-origin: 248.222px 214.795px;" id="el05x6lqumfu5g" class="animable"></path><path d="M294.8,205.84c1.48,3.53,2.66,7.28,2.66,7.28s1.89.95,1.89-7.57a30.31,30.31,0,0,0-.64-6.14,16.8,16.8,0,0,1-3.62,6.14C295,205.65,294.89,205.74,294.8,205.84Z" style="fill: rgb(46, 53, 58); transform-origin: 297.075px 206.281px;" id="eluqhtgxa9g9s" class="animable"></path><path d="M266.94,212.65a10.67,10.67,0,0,1-.26,4.73c-1.42,3.79-1.9,8.05,1.42,4.74,1.45-1.45,2.72-5.16,3.68-8.88C270.26,213.11,268.66,212.92,266.94,212.65Z" style="fill: rgb(46, 53, 58); transform-origin: 268.687px 217.979px;" id="el1by41r2yk4v" class="animable"></path><path d="M302.67,178.79a51.63,51.63,0,0,0-1.17,6c2.3.21,5.32.4,8.74.4l.63,0c.19-6.22,2.65-10.26,3.87-13.94C316.16,167,305,170,302.67,178.79Z" style="fill: rgb(46, 53, 58); transform-origin: 308.182px 177.266px;" id="el04zf8qyw0jpm" class="animable"></path><path d="M303.14,192.29c-.79-1.13-1.55-2.18-2.25-3.12-.29,2.06-.6,4.11-1,6.09a11.09,11.09,0,0,0,4.22,2.24C308.35,198.44,306.46,197,303.14,192.29Z" style="fill: rgb(46, 53, 58); transform-origin: 303.224px 193.471px;" id="elcl5kig9nseg" class="animable"></path><path d="M283.27,212.66c.6,3.93,1.4,9,1.4,9s2.59.36,3.84-11A21.17,21.17,0,0,1,283.27,212.66Z" style="fill: rgb(46, 53, 58); transform-origin: 285.89px 216.161px;" id="el3sp25t62hmu" class="animable"></path><path d="M177.65,236.8s-1.42-1-8.05.47-2.37,5.69,1.9,6.16,5.7.48,5.7.48Z" style="fill: rgb(46, 53, 58); transform-origin: 171.906px 240.189px;" id="elq0r0x19yrmc" class="animable"></path><path d="M175.05,251.7s-7.13-2.65-8.13-.83a14.19,14.19,0,0,0,6.3,5.14A9.45,9.45,0,0,0,175.05,251.7Z" style="fill: rgb(46, 53, 58); transform-origin: 170.985px 253.121px;" id="els480bq3jmoi" class="animable"></path><path d="M155.15,279.05c-.75-1.13-3.24-2.27-5.24-3-.22.85-.45,1.67-.69,2.45C151.83,278.88,156.31,280.78,155.15,279.05Z" style="fill: rgb(46, 53, 58); transform-origin: 152.279px 277.908px;" id="elenjv6k8stkt" class="animable"></path><path d="M151.67,287c.61-.61-1.55-2.8-3.75-4.76a14.75,14.75,0,0,1-1,2.14c-.28.46-.56.87-.82,1.26C148.34,286.59,150.93,287.75,151.67,287Z" style="fill: rgb(46, 53, 58); transform-origin: 148.937px 284.74px;" id="elyxuzztcbgl" class="animable"></path><path d="M155.15,267a4.53,4.53,0,0,0-3.08-.3c-.41,2-.86,4.11-1.35,6.17a99,99,0,0,1,10.07-1.73C162.28,271.09,157.14,267.94,155.15,267Z" style="fill: rgb(46, 53, 58); transform-origin: 155.889px 269.714px;" id="eleache8623lo" class="animable"></path><path d="M163.77,260.15c.67-.66-2.81-4.31-6.13-5s-3.66,1-3.66,1-.33,2.05-.87,5.05a14.55,14.55,0,0,1,3.37-1.27C158,259.82,163.11,260.82,163.77,260.15Z" style="fill: rgb(46, 53, 58); transform-origin: 158.482px 258.092px;" id="elfkzn0l25sw" class="animable"></path><path d="M174.83,203.86a42.34,42.34,0,0,1-5.94,1.92s1.49,13.35,2.71,15.59C172.72,223.41,175.19,209.66,174.83,203.86Z" style="fill: rgb(46, 53, 58); transform-origin: 171.878px 212.717px;" id="elg7o8aytmdfq" class="animable"></path><path d="M137.85,186.11c-.46,4.37-.65,12.43.65,11.61s4-8.12,5.09-11.48c-.26-.05-.52-.1-.79-.13A37.06,37.06,0,0,0,137.85,186.11Z" style="fill: rgb(46, 53, 58); transform-origin: 140.547px 191.903px;" id="elua1qkiqqeo" class="animable"></path><path d="M144.55,192.89c.68-.11,2-2.67,3-4.93a11.79,11.79,0,0,0-3.7-1.66C143.76,188.48,143.62,193.05,144.55,192.89Z" style="fill: rgb(46, 53, 58); transform-origin: 145.667px 189.597px;" id="el8te60iwbtdw" class="animable"></path><path d="M135.28,191.47c.3,1.37,1.84-2.28,2.43-5.35-1.38.07-2.62.18-3.36.24C134.79,189.14,135,190.41,135.28,191.47Z" style="fill: rgb(46, 53, 58); transform-origin: 136.03px 188.943px;" id="elnoeozwucwtb" class="animable"></path><path d="M213.48,247.53a25.61,25.61,0,0,1,10.42-8.84c6.95-3.15,10.1-4.42,9.16-2.52s-13.26,16.1-13.26,16.1S214.27,251.16,213.48,247.53Z" style="fill: rgb(46, 53, 58); transform-origin: 223.351px 243.774px;" id="elxkc1gau71lh" class="animable"></path><path d="M227.69,257.32s14.84-16.42,15.47-12.63-7.5,15.55-7.5,15.55S229.58,259.21,227.69,257.32Z" style="fill: rgb(46, 53, 58); transform-origin: 235.442px 252.181px;" id="elvx6n9uxvn5c" class="animable"></path><path d="M244.42,263s-.13.46-.27,1.11a11.35,11.35,0,0,1,3,2.57c1.93-2.53,4.09-7.24,5.45-9C254.52,255.11,244.42,263,244.42,263Z" style="fill: rgb(46, 53, 58); transform-origin: 248.496px 261.923px;" id="el07zsoxd2iu06" class="animable"></path><path d="M226.66,224.43a18.47,18.47,0,0,1,2.14-1.84" style="fill: none; stroke: rgb(46, 53, 58); stroke-linecap: round; stroke-linejoin: round; transform-origin: 227.73px 223.51px;" id="el2gjd86dre4m" class="animable"></path><path d="M217.9,251.48s-5.21-2.37-5.21-7.58c0-3.64,6.48-11.67,11.34-16.82" style="fill: none; stroke: rgb(46, 53, 58); stroke-linecap: round; stroke-linejoin: round; transform-origin: 218.36px 239.28px;" id="el1m4gkb4oql" class="animable"></path><path d="M172.92,256.93A24.56,24.56,0,0,0,177.18,242c0-4.74,1.89-17.52,1.89-17.52" style="fill: none; stroke: rgb(46, 53, 58); stroke-linecap: round; stroke-linejoin: round; transform-origin: 175.995px 240.705px;" id="elh2v329mab24" class="animable"></path><path d="M239.46,289.37s1.66-4.72,5.27-5.55" style="fill: none; stroke: rgb(46, 53, 58); stroke-linecap: round; stroke-linejoin: round; transform-origin: 242.095px 286.595px;" id="elw3d24qc4gmb" class="animable"></path><path d="M247.36,285.08a5.47,5.47,0,0,1,1.28-.49" style="fill: none; stroke: rgb(46, 53, 58); stroke-linecap: round; stroke-linejoin: round; transform-origin: 248px 284.835px;" id="elg8i9lifznk" class="animable"></path><path d="M243.38,290.14a11.61,11.61,0,0,1,2.56-4" style="fill: none; stroke: rgb(46, 53, 58); stroke-linecap: round; stroke-linejoin: round; transform-origin: 244.66px 288.14px;" id="el6n5j1w5wni" class="animable"></path><path d="M135.76,296.74s1.67-4.72,5.27-5.55" style="fill: none; stroke: rgb(46, 53, 58); stroke-linecap: round; stroke-linejoin: round; transform-origin: 138.395px 293.965px;" id="el6d0auzssbhr" class="animable"></path><path d="M143.67,292.45A5.31,5.31,0,0,1,145,292" style="fill: none; stroke: rgb(46, 53, 58); stroke-linecap: round; stroke-linejoin: round; transform-origin: 144.335px 292.225px;" id="elyhxidp7qc5a" class="animable"></path><path d="M139.68,297.51a11.72,11.72,0,0,1,2.57-4" style="fill: none; stroke: rgb(46, 53, 58); stroke-linecap: round; stroke-linejoin: round; transform-origin: 140.965px 295.51px;" id="eln1v4p2blfcn" class="animable"></path></g><g id="freepik--device-2--inject-2" class="animable" style="transform-origin: 317.45px 345.861px;"><g id="elyr9hun0p6nb"><rect x="262.82" y="262.75" width="112.01" height="199.98" rx="9" style="fill: rgb(255, 255, 255); stroke: rgb(46, 53, 58); stroke-miterlimit: 10; transform-origin: 318.825px 362.74px; transform: rotate(90deg);" class="animable" id="elplrpeso9oxf"></rect></g><g id="el11dev2i0eyv"><rect x="260.07" y="262.75" width="112.01" height="199.98" rx="9" style="fill: rgb(46, 53, 58); stroke: rgb(46, 53, 58); stroke-miterlimit: 10; transform-origin: 316.075px 362.74px; transform: rotate(90deg);" class="animable" id="elmiclo1kha9"></rect></g><rect x="233.27" y="312.58" width="172.49" height="99.65" style="fill: rgb(255, 255, 255); stroke: rgb(46, 53, 58); stroke-miterlimit: 10; transform-origin: 319.515px 362.405px;" id="eld7e315oktgp" class="animable"></rect><path d="M225.71,366.52a4.12,4.12,0,1,0-4.12-4.12A4.12,4.12,0,0,0,225.71,366.52Z" style="fill: rgb(255, 255, 255); stroke: rgb(46, 53, 58); stroke-miterlimit: 10; transform-origin: 225.71px 362.4px;" id="eltd0wxwgm2" class="animable"></path><path d="M320.55,282.65c-6-5.95-15.23-9.56-24.71-9.67s-19,3.37-25.11,9.3a2.46,2.46,0,1,0,3.42,3.53c5.2-5.05,13.29-8,21.63-7.91s16.2,3.17,21.3,8.24a2.46,2.46,0,1,0,3.47-3.49Z" style="fill: #4A8FE7; transform-origin: 295.59px 279.919px;" id="elikzwupmyhc" class="animable"></path><path d="M313.75,289.7a29,29,0,0,0-36.31-.31,2.46,2.46,0,0,0,3.14,3.79,24,24,0,0,1,30,.26,2.46,2.46,0,0,0,3.2-3.74Z" style="fill: #4A8FE7; transform-origin: 295.597px 288.594px;" id="el155tw899nwr" class="animable"></path><path d="M306.91,296.66a17.91,17.91,0,0,0-23,0,2.44,2.44,0,0,0-.36,3.45,2.46,2.46,0,0,0,3.46.36,13,13,0,0,1,16.84,0,2.46,2.46,0,1,0,3.1-3.82Z" style="fill: #4A8FE7; transform-origin: 295.441px 296.76px;" id="el1j2escwelts" class="animable"></path></g><g id="freepik--cat-2--inject-2" class="animable" style="transform-origin: 323.122px 364.289px;"><path d="M362.07,401.72c0,3.39-21.55,6.13-48.13,6.13s-48.12-2.74-48.12-6.13,21.54-6.12,48.12-6.12S362.07,398.34,362.07,401.72Z" style="fill: rgb(46, 53, 58); transform-origin: 313.945px 401.725px;" id="elb977gb0icc" class="animable"></path><path d="M292.89,379.62s7.44,12,7.91,14.4-3.64,2.85-3.64,4.59,2.54,2.38,4.91,2.38a5.35,5.35,0,0,0,5.22-4.44c.64-2.85-1.9-6.64-2.85-11.24s-1.42-8.39-1.42-8.39S294.79,375.66,292.89,379.62Z" style="fill: #4A8FE7; stroke: rgb(46, 53, 58); stroke-miterlimit: 10; stroke-width: 0.75px; transform-origin: 300.141px 388.86px;" id="el4c4oll8bysx" class="animable"></path><g id="elbqu3kidmvxp"><path d="M292.89,379.62s7.44,12,7.91,14.4-3.64,2.85-3.64,4.59,2.54,2.38,4.91,2.38a5.35,5.35,0,0,0,5.22-4.44c.64-2.85-1.9-6.64-2.85-11.24s-1.42-8.39-1.42-8.39S294.79,375.66,292.89,379.62Z" style="stroke: rgb(46, 53, 58); stroke-miterlimit: 10; stroke-width: 0.75px; opacity: 0.3; transform-origin: 300.141px 388.86px;" class="animable" id="el8379w9onnym"></path></g><path d="M324.55,372.49s-.79,5.38.16,8.71,3.48,7.28,2.21,8.71-8.54,3.95-10.29,3.95-3.8-.79-5.7.95-.63,4.28,1.59,4.59,10.29-1.11,17.89-4.75,5.06-10.29,7.44-13.13,2.85-3,2.85-3S329.61,370.75,324.55,372.49Z" style="fill: #4A8FE7; stroke: rgb(46, 53, 58); stroke-miterlimit: 10; stroke-width: 0.75px; transform-origin: 325.352px 385.839px;" id="eligqj2uo5to" class="animable"></path><g id="el9l07wamq04h"><path d="M324.55,372.49s-.79,5.38.16,8.71,3.48,7.28,2.21,8.71-8.54,3.95-10.29,3.95-3.8-.79-5.7.95-.63,4.28,1.59,4.59,10.29-1.11,17.89-4.75,5.06-10.29,7.44-13.13,2.85-3,2.85-3S329.61,370.75,324.55,372.49Z" style="stroke: rgb(46, 53, 58); stroke-miterlimit: 10; stroke-width: 0.75px; opacity: 0.3; transform-origin: 325.352px 385.839px;" class="animable" id="el8wpwj86dnu6"></path></g><path d="M382.65,327.06c-1.59,5.86-.95,13.61-5.07,17.89s-8.71,6.33-18.84,4.75-13.61-7.76-20.74-9.82-19.94-2.37-28.17-.31-13,4.74-16.62,5.54a12.43,12.43,0,0,1-3.57.24,3.33,3.33,0,0,0-1-2,13.36,13.36,0,0,1-2.11-2.95s2.95-7.17,2.74-10.54-.84-7-2.95-5.48-6.74,9.27-6.74,9.27a7.71,7.71,0,0,0-3.79-1.68,41.25,41.25,0,0,0-6.11.21s-5.48-8.85-6.33-9.91-1.89.42-2.1,5.06.63,10.33,1.89,11.59c0,0-2.74,4.64-2.52,5.9s7.28,8.66,10.59,10.39c1.43,3,4.09,9.06,4.77,14,.95,6.8,7.28,9.65,7.28,9.65s-2.37,15-4.75,18.84-3.48,4-5.54,4.28-3.64,3.16-2.37,4.11,4.59,1.27,7.6-.31,7-7.45,10.29-13.46,7.44-13,7.44-13,7-1.11,16.62-3.17,13.45-.47,13.45-.47,7.44,4.75,10.77,5.7,9.34,3,9.5,6.17.15,5.86-3,7.28-4.28,4.28-3.8,5.54,3.8,1.9,6.33,1.43,4.91-3.64,6-6.65,3.48-13,2.37-16.31-4.91-4.59-4.27-7.44,4.11-4.75,4.43-8.86-1.27-5.7-1.27-5.7,12.19,3.48,23.27-.79,12.35-17.26,11.88-22.64,1.58-8.55,2.53-11.4S384.23,321.2,382.65,327.06Z" style="fill: #4A8FE7; stroke: rgb(46, 53, 58); stroke-miterlimit: 10; stroke-width: 0.75px; transform-origin: 325.715px 363.81px;" id="elu53fp4n1emi" class="animable"></path><path d="M286.23,337.41s.09-.37.23-1c.4-1.75,1.22-5.44,1.55-7.91.45-3.34-1.56-3.56-3.56-.45-2.47,3.85-4.68,6.68-4.68,6.68l4.68,4.23Z" style="fill: rgb(255, 255, 255); transform-origin: 283.922px 332.405px;" id="el5bhv6ds41qb" class="animable"></path><path d="M271.09,345.65s-5.12-.22-5.79,1.78,2,4.9,4.45,6,3.56,4.23,4.9,7.57,1.11,8,2.9,10.91a23.94,23.94,0,0,0,5.47,5.54,9.72,9.72,0,0,1,1.11-2.77c.67-.89,2.88-4.33,2.55-6.88a21.15,21.15,0,0,0-1.55-5.2l1.55,1.44a16.42,16.42,0,0,0-2.55-5.21c-1.66-2-2.11-2.66-2.11-2.66l2.2-.29S280.22,345.21,271.09,345.65Z" style="fill: rgb(255, 255, 255); transform-origin: 275.954px 361.543px;" id="elqp0dedy3x7s" class="animable"></path><path d="M268.64,335a33.82,33.82,0,0,0-3.12-8.69c-2-3.34-3.82-4.08-3.56,1.12.22,4.45,0,8.46,2,11.13C265.31,340.32,268.64,335,268.64,335Z" style="fill: rgb(255, 255, 255); transform-origin: 265.288px 331.291px;" id="elfwxt7igt6bt" class="animable"></path><path d="M285.29,338.3s3-4.12,3.17-12.19" style="fill: none; stroke: rgb(46, 53, 58); stroke-linecap: round; stroke-linejoin: round; stroke-width: 0.75px; transform-origin: 286.875px 332.205px;" id="elnx8ox2xoqhn" class="animable"></path><path d="M263.32,322.26S268,329.91,268,332.6" style="fill: none; stroke: rgb(46, 53, 58); stroke-linecap: round; stroke-linejoin: round; stroke-width: 0.75px; transform-origin: 265.66px 327.43px;" id="el3ndd2h8726" class="animable"></path><path d="M274,345l-3.18-.45c-.91-.13-1.17.45-.72.9s1,1.5,1.76,1.5,2.33-.85,2.46-1.43S274,345,274,345Z" style="fill: rgb(46, 53, 58); transform-origin: 272.114px 345.741px;" id="elvest19733gk" class="animable"></path><line x1="271.84" y1="347.24" x2="271.9" y2="348.66" style="fill: none; stroke: rgb(46, 53, 58); stroke-linecap: round; stroke-linejoin: round; stroke-width: 0.75px; transform-origin: 271.87px 347.95px;" id="el0e1egzz0vdkt" class="animable"></line><path d="M269,346.91s.91,2.27,2.86,2.27a4.15,4.15,0,0,0,3.57-2.2" style="fill: none; stroke: rgb(46, 53, 58); stroke-linecap: round; stroke-linejoin: round; stroke-width: 0.75px; transform-origin: 272.215px 348.045px;" id="eln3qzw5iis0t" class="animable"></path><path d="M270.28,342.4s-1-3.6-5.41-2.06" style="fill: none; stroke: rgb(46, 53, 58); stroke-linecap: round; stroke-linejoin: round; stroke-width: 1.3px; transform-origin: 267.575px 341.178px;" id="elcm6kcilecw" class="animable"></path><path d="M275.76,343.43s3.32-4,7.35-1.19" style="fill: none; stroke: rgb(46, 53, 58); stroke-linecap: round; stroke-linejoin: round; stroke-width: 1.3px; transform-origin: 279.435px 342.335px;" id="elaz5mq6k2l8f" class="animable"></path><path d="M267.29,345.21s-8.43-.34-11.87,3.79" style="fill: none; stroke: rgb(46, 53, 58); stroke-linecap: round; stroke-linejoin: round; stroke-width: 0.5px; transform-origin: 261.355px 347.102px;" id="elxckxpd9gwx" class="animable"></path><path d="M267.12,346.42a17.13,17.13,0,0,0-6.71,3.44" style="fill: none; stroke: rgb(46, 53, 58); stroke-linecap: round; stroke-linejoin: round; stroke-width: 0.5px; transform-origin: 263.765px 348.14px;" id="el50ann1qrp9v" class="animable"></path><path d="M266.43,347.62s-3.61,2.41-4.82,5" style="fill: none; stroke: rgb(46, 53, 58); stroke-linecap: round; stroke-linejoin: round; stroke-width: 0.5px; transform-origin: 264.02px 350.12px;" id="elcm22c3cmbms" class="animable"></path><path d="M276.23,345.73s6.54-1.55,10.84,3.27" style="fill: none; stroke: rgb(46, 53, 58); stroke-linecap: round; stroke-linejoin: round; stroke-width: 0.5px; transform-origin: 281.65px 347.246px;" id="elt78wewpypl" class="animable"></path><path d="M276.41,346.93s4.47,0,6.88,2.24" style="fill: none; stroke: rgb(46, 53, 58); stroke-linecap: round; stroke-linejoin: round; stroke-width: 0.5px; transform-origin: 279.85px 348.05px;" id="eld06cd7rgajd" class="animable"></path><path d="M277.09,348.14s2.76,1.54,3.27,2.75" style="fill: none; stroke: rgb(46, 53, 58); stroke-linecap: round; stroke-linejoin: round; stroke-width: 0.5px; transform-origin: 278.725px 349.515px;" id="ely6v5yu46is" class="animable"></path><path d="M278.81,404.34a9.26,9.26,0,0,1-5.12,1.83c-2.8,0-3.29-.61-2.68-1.95s2.2-1.46,3.54-1.83S277.47,401.42,278.81,404.34Z" style="fill: rgb(255, 255, 255); transform-origin: 274.794px 404.122px;" id="el0lqxq3gyskl" class="animable"></path><path d="M343.89,395.81a4.68,4.68,0,0,0-2.92,1.95c-1.47,1.83-1.14,2.56,1.83,3.29a5.4,5.4,0,0,0,6.09-2.32C350.11,397,347.06,394.59,343.89,395.81Z" style="fill: rgb(255, 255, 255); transform-origin: 344.642px 398.372px;" id="el0qifk1l5v40g" class="animable"></path><path d="M289.64,345.35a2.92,2.92,0,0,0-.44-1.25c-1,2.58-6.22,13.88-19.48,10.16a10.89,10.89,0,0,0,1.46.94l.68,1.47a18.58,18.58,0,0,0,2.9.24c9.86,0,14.54-8.38,15.95-11.53A9.23,9.23,0,0,1,289.64,345.35Z" style="fill: rgb(46, 53, 58); transform-origin: 280.215px 350.505px;" id="ellmvwl8borms" class="animable"></path><path d="M279.38,358.37a2,2,0,1,1-2-2A2,2,0,0,1,279.38,358.37Z" style="fill: rgb(255, 255, 255); stroke: rgb(46, 53, 58); stroke-miterlimit: 10; stroke-width: 0.75px; transform-origin: 277.38px 358.37px;" id="elmesrbcwx94p" class="animable"></path><path d="M301.52,342.16c1.57,1.6,6.64,7.39,6.64,15.69,0,9.82,2.76,8.77,3.94,2.8s2.37-17.18-.39-21.39l-.07-.09c-.62.12-1.23.25-1.81.4A75.36,75.36,0,0,0,301.52,342.16Z" style="fill: rgb(46, 53, 58); transform-origin: 307.459px 352.18px;" id="elnbxggu8gplj" class="animable"></path><path d="M317.28,338.41a2.48,2.48,0,0,0,.78,2.11s3.8,2.84,3.8,10.13,3.16,4.43,3.16-3.17c0-5.09-.43-7.9-1.66-9.3C321.31,338.17,319.26,338.25,317.28,338.41Z" style="fill: rgb(46, 53, 58); transform-origin: 321.142px 346.526px;" id="elvhlc9t43hxi" class="animable"></path><path d="M332.57,338.79c.7,2.31,2.44,9.09.37,13.76-2.53,5.69,6-.95,6.33-8.24.07-1.48.12-2.79.16-3.94a15,15,0,0,0-1.43-.49A40.3,40.3,0,0,0,332.57,338.79Z" style="fill: rgb(46, 53, 58); transform-origin: 335.951px 346.742px;" id="elq1l06y18zy" class="animable"></path><path d="M347.25,345a7.27,7.27,0,0,1-.38,2.51c-1.27,3.8-6.65,9.82-3.8,9.82,1.89,0,5.18-6.28,7.17-10.5C349.18,346.22,348.2,345.6,347.25,345Z" style="fill: rgb(46, 53, 58); transform-origin: 346.244px 351.165px;" id="elmmvja789edc" class="animable"></path><path d="M377.38,345.14c1,2.36,1.78,4.87,1.78,4.87s1.27.64,1.27-5.06a20.56,20.56,0,0,0-.43-4.1,11.37,11.37,0,0,1-2.42,4.1Z" style="fill: rgb(46, 53, 58); transform-origin: 378.905px 345.441px;" id="elcwkadi5whta" class="animable"></path><path d="M358.76,349.7a7,7,0,0,1-.18,3.16c-.95,2.54-1.26,5.38.95,3.17,1-1,1.82-3.45,2.47-5.94C361,350,359.91,349.88,358.76,349.7Z" style="fill: rgb(46, 53, 58); transform-origin: 359.929px 353.262px;" id="eldnq8en73l0h" class="animable"></path><path d="M382.65,327.06a34.53,34.53,0,0,0-.79,4c1.54.14,3.56.27,5.85.27l.42,0c.13-4.16,1.77-6.86,2.59-9.32C391.67,319.14,384.23,321.2,382.65,327.06Z" style="fill: rgb(46, 53, 58); transform-origin: 386.332px 326.029px;" id="el3rxbml2eo04" class="animable"></path><path d="M383,336.08c-.53-.75-1-1.45-1.51-2.08-.18,1.38-.39,2.75-.68,4.07a7.51,7.51,0,0,0,2.82,1.5C386.44,340.2,385.18,339.25,383,336.08Z" style="fill: rgb(46, 53, 58); transform-origin: 383.03px 336.877px;" id="el47lra8g8ua5" class="animable"></path><path d="M369.68,349.7c.4,2.63.93,6,.93,6s1.73.24,2.57-7.32A14.68,14.68,0,0,1,369.68,349.7Z" style="fill: rgb(46, 53, 58); transform-origin: 371.43px 352.04px;" id="el003g50hqsbh98" class="animable"></path><path d="M299.06,365.84s-.95-.63-5.38.32-1.58,3.8,1.27,4.12,3.81.32,3.81.32Z" style="fill: rgb(46, 53, 58); transform-origin: 295.222px 368.118px;" id="elxagpt9anpfh" class="animable"></path><path d="M297.32,375.8s-4.77-1.77-5.43-.55a9.45,9.45,0,0,0,4.21,3.44A6.35,6.35,0,0,0,297.32,375.8Z" style="fill: rgb(46, 53, 58); transform-origin: 294.605px 376.756px;" id="elqvuje1w05sm" class="animable"></path><path d="M284,394.09c-.51-.76-2.17-1.52-3.5-2-.15.57-.31,1.12-.46,1.64C281.8,394,284.79,395.25,284,394.09Z" style="fill: rgb(46, 53, 58); transform-origin: 282.085px 393.333px;" id="elw5kc12dr1xc" class="animable"></path><path d="M281.69,399.41c.41-.4-1-1.87-2.51-3.18a8.68,8.68,0,0,1-.7,1.43c-.19.31-.37.58-.55.85C279.46,399.13,281.19,399.91,281.69,399.41Z" style="fill: rgb(46, 53, 58); transform-origin: 279.846px 397.9px;" id="elqoecczv0ef" class="animable"></path><path d="M284,386a3,3,0,0,0-2.06-.2c-.27,1.34-.58,2.75-.9,4.12a67.49,67.49,0,0,1,6.73-1.15C288.79,388.77,285.35,386.67,284,386Z" style="fill: rgb(46, 53, 58); transform-origin: 284.498px 387.811px;" id="el42g8wvgsxmb" class="animable"></path><path d="M289.78,381.46c.45-.45-1.88-2.88-4.1-3.33s-2.45.69-2.45.69-.21,1.37-.58,3.38a9.55,9.55,0,0,1,2.26-.85C285.9,381.24,289.34,381.9,289.78,381.46Z" style="fill: rgb(46, 53, 58); transform-origin: 286.243px 380.112px;" id="elxuilvkp28s7" class="animable"></path><path d="M297.18,343.82a29.53,29.53,0,0,1-4,1.29s1,8.92,1.81,10.42S297.42,347.7,297.18,343.82Z" style="fill: rgb(46, 53, 58); transform-origin: 295.192px 349.756px;" id="el76rtzf513a5" class="animable"></path><path d="M272.45,332c-.31,2.92-.44,8.31.44,7.77s2.65-5.43,3.4-7.68a3.23,3.23,0,0,0-.53-.08A24.2,24.2,0,0,0,272.45,332Z" style="fill: rgb(46, 53, 58); transform-origin: 274.253px 335.878px;" id="elm2ebx6vuwie" class="animable"></path><path d="M276.93,336.49c.46-.08,1.33-1.79,2-3.3a7.62,7.62,0,0,0-2.47-1.11C276.4,333.54,276.31,336.59,276.93,336.49Z" style="fill: rgb(46, 53, 58); transform-origin: 277.674px 334.286px;" id="elq443ofjxguf" class="animable"></path><path d="M270.73,335.54c.2.91,1.23-1.53,1.63-3.58-.93.05-1.76.12-2.25.16C270.41,334,270.57,334.83,270.73,335.54Z" style="fill: rgb(46, 53, 58); transform-origin: 271.235px 333.848px;" id="elx4w9vpwl2vb" class="animable"></path><path d="M323,373a17.05,17.05,0,0,1,7-5.91c4.65-2.11,6.76-3,6.12-1.69s-8.86,10.77-8.86,10.77S323.55,375.45,323,373Z" style="fill: rgb(46, 53, 58); transform-origin: 329.616px 370.478px;" id="elr4w5tmrw17" class="animable"></path><path d="M332.52,379.56s9.92-11,10.34-8.44-5,10.4-5,10.4S333.78,380.83,332.52,379.56Z" style="fill: rgb(46, 53, 58); transform-origin: 337.702px 376.127px;" id="elk9r7ggnpnp" class="animable"></path><path d="M343.7,383.36s-.09.31-.18.74a7.8,7.8,0,0,1,2,1.72c1.29-1.69,2.73-4.84,3.64-6.05C350.46,378.09,343.7,383.36,343.7,383.36Z" style="fill: rgb(46, 53, 58); transform-origin: 346.423px 382.63px;" id="el7ml7vatmojw" class="animable"></path><path d="M331.83,357.57a10.49,10.49,0,0,1,1.43-1.22" style="fill: none; stroke: rgb(46, 53, 58); stroke-linecap: round; stroke-linejoin: round; stroke-width: 0.75px; transform-origin: 332.545px 356.96px;" id="eldl3xp7bzvyj" class="animable"></path><path d="M326,375.66s-3.48-1.58-3.48-5.07c0-2.43,4.33-7.8,7.58-11.25" style="fill: none; stroke: rgb(46, 53, 58); stroke-linecap: round; stroke-linejoin: round; stroke-width: 0.75px; transform-origin: 326.31px 367.5px;" id="eltjospdxby9" class="animable"></path><path d="M295.9,379.3a16.44,16.44,0,0,0,2.85-10c0-3.17,1.26-11.72,1.26-11.72" style="fill: none; stroke: rgb(46, 53, 58); stroke-linecap: round; stroke-linejoin: round; stroke-width: 0.75px; transform-origin: 297.955px 368.44px;" id="el5bc1f68w00u" class="animable"></path><path d="M340.38,401s1.12-3.15,3.53-3.71" style="fill: none; stroke: rgb(46, 53, 58); stroke-linecap: round; stroke-linejoin: round; stroke-width: 0.75px; transform-origin: 342.145px 399.145px;" id="eljik0389x9f" class="animable"></path><path d="M345.67,398.12a3.39,3.39,0,0,1,.86-.32" style="fill: none; stroke: rgb(46, 53, 58); stroke-linecap: round; stroke-linejoin: round; stroke-width: 0.75px; transform-origin: 346.1px 397.96px;" id="eluy5xav4c35" class="animable"></path><path d="M343,401.5a7.77,7.77,0,0,1,1.72-2.68" style="fill: none; stroke: rgb(46, 53, 58); stroke-linecap: round; stroke-linejoin: round; stroke-width: 0.75px; transform-origin: 343.86px 400.16px;" id="el8mv5uzbp82k" class="animable"></path><path d="M271.06,405.92s1.11-3.15,3.52-3.71" style="fill: none; stroke: rgb(46, 53, 58); stroke-linecap: round; stroke-linejoin: round; stroke-width: 0.75px; transform-origin: 272.82px 404.065px;" id="elaw4v068si5s" class="animable"></path><path d="M276.34,403.05a3.41,3.41,0,0,1,.86-.33" style="fill: none; stroke: rgb(46, 53, 58); stroke-linecap: round; stroke-linejoin: round; stroke-width: 0.75px; transform-origin: 276.77px 402.885px;" id="elvc4wn6ep8cq" class="animable"></path><path d="M273.68,406.43a7.84,7.84,0,0,1,1.71-2.68" style="fill: none; stroke: rgb(46, 53, 58); stroke-linecap: round; stroke-linejoin: round; stroke-width: 0.75px; transform-origin: 274.535px 405.09px;" id="el6eji48dx9vf" class="animable"></path></g><defs>     <filter id="active" height="200%">         <feMorphology in="SourceAlpha" result="DILATED" operator="dilate" radius="2"></feMorphology>                <feFlood flood-color="#32DFEC" flood-opacity="1" result="PINK"></feFlood>        <feComposite in="PINK" in2="DILATED" operator="in" result="OUTLINE"></feComposite>        <feMerge>            <feMergeNode in="OUTLINE"></feMergeNode>            <feMergeNode in="SourceGraphic"></feMergeNode>        </feMerge>    </filter>    <filter id="hover" height="200%">        <feMorphology in="SourceAlpha" result="DILATED" operator="dilate" radius="2"></feMorphology>                <feFlood flood-color="#ff0000" flood-opacity="0.5" result="PINK"></feFlood>        <feComposite in="PINK" in2="DILATED" operator="in" result="OUTLINE"></feComposite>        <feMerge>            <feMergeNode in="OUTLINE"></feMergeNode>            <feMergeNode in="SourceGraphic"></feMergeNode>        </feMerge>            <feColorMatrix type="matrix" values="0   0   0   0   0                0   1   0   0   0                0   0   0   0   0                0   0   0   1   0 "></feColorMatrix>    </filter></defs></svg>